<svg width="140" height="105" viewBox="0 0 140 105" fill="none" xmlns="http://www.w3.org/2000/svg">
<path d="M75 105V75H95L70 45L45 75H65V105H40V104.75C39.16 104.8 38.36 105 37.5 105C27.5544 105 18.0161 101.049 10.9835 94.0165C3.95088 86.9839 0 77.4456 0 67.5C0 48.26 14.55 32.58 33.22 30.43C34.8569 21.873 39.4245 14.1538 46.1371 8.60007C52.8497 3.04638 61.2878 0.00534017 70 0C78.7134 0.00481662 87.1529 3.04545 93.8672 8.59903C100.582 14.1526 105.151 21.8721 106.79 30.43C125.46 32.58 139.99 48.26 139.99 67.5C139.99 77.4456 136.039 86.9839 129.007 94.0165C121.974 101.049 112.436 105 102.49 105C101.65 105 100.84 104.8 99.99 104.75V105H75Z" fill="white"/>
</svg>
