<svg width="18" height="19" viewBox="0 0 18 19" fill="none" xmlns="http://www.w3.org/2000/svg">
<path d="M7 0.5H1C0.734784 0.5 0.48043 0.605357 0.292893 0.792893C0.105357 0.98043 0 1.23478 0 1.5V7.5C0 7.76522 0.105357 8.01957 0.292893 8.20711C0.48043 8.39464 0.734784 8.5 1 8.5H7C7.26522 8.5 7.51957 8.39464 7.70711 8.20711C7.89464 8.01957 8 7.76522 8 7.5V1.5C8 1.23478 7.89464 0.98043 7.70711 0.792893C7.51957 0.605357 7.26522 0.5 7 0.5ZM6 6.5H2V2.5H6V6.5ZM17 10.5H11C10.7348 10.5 10.4804 10.6054 10.2929 10.7929C10.1054 10.9804 10 11.2348 10 11.5V17.5C10 17.7652 10.1054 18.0196 10.2929 18.2071C10.4804 18.3946 10.7348 18.5 11 18.5H17C17.2652 18.5 17.5196 18.3946 17.7071 18.2071C17.8946 18.0196 18 17.7652 18 17.5V11.5C18 11.2348 17.8946 10.9804 17.7071 10.7929C17.5196 10.6054 17.2652 10.5 17 10.5ZM16 16.5H12V12.5H16V16.5ZM14 0.5C11.794 0.5 10 2.294 10 4.5C10 6.706 11.794 8.5 14 8.5C16.206 8.5 18 6.706 18 4.5C18 2.294 16.206 0.5 14 0.5ZM14 6.5C12.897 6.5 12 5.603 12 4.5C12 3.397 12.897 2.5 14 2.5C15.103 2.5 16 3.397 16 4.5C16 5.603 15.103 6.5 14 6.5ZM4 10.5C1.794 10.5 0 12.294 0 14.5C0 16.706 1.794 18.5 4 18.5C6.206 18.5 8 16.706 8 14.5C8 12.294 6.206 10.5 4 10.5ZM4 16.5C2.897 16.5 2 15.603 2 14.5C2 13.397 2.897 12.5 4 12.5C5.103 12.5 6 13.397 6 14.5C6 15.603 5.103 16.5 4 16.5Z" fill="white"/>
</svg>
