<svg width="23" height="23" viewBox="0 0 23 23" fill="none" xmlns="http://www.w3.org/2000/svg">
<g id="jam:google">
<path id="Vector" d="M6.11043 9.64849C5.9075 10.2447 5.8039 10.8702 5.80376 11.5C5.80376 12.2034 5.93026 12.8771 6.1641 13.4991C6.45554 14.2764 6.91332 14.9807 7.50541 15.5627C8.09751 16.1446 8.80962 16.5902 9.59191 16.8681C10.3742 17.1461 11.2078 17.2498 12.0343 17.1719C12.8609 17.094 13.6604 16.8364 14.377 16.4172H14.378C15.5069 15.7553 16.3744 14.7258 16.8351 13.501H11.7109V9.70982H20.9157C21.1543 10.9637 21.1399 12.2527 20.8736 13.501C20.4127 15.659 19.2211 17.5918 17.5002 18.9731C15.8003 20.3418 13.6826 21.0866 11.5001 21.0833C9.85461 21.0842 8.23661 20.6614 6.802 19.8554C5.36738 19.0495 4.16449 17.8877 3.30923 16.482C2.45397 15.0762 1.97516 13.4739 1.91893 11.8293C1.8627 10.1848 2.23094 8.55351 2.98818 7.09262C3.7962 5.5325 5.01755 4.22454 6.51873 3.3117C8.01992 2.39885 9.74316 1.91625 11.5001 1.91666C13.825 1.91666 15.9573 2.74466 17.6171 4.12274L14.5121 6.66424C13.7848 6.21156 12.9647 5.92866 12.113 5.83656C11.2612 5.74447 10.3997 5.84556 9.59235 6.13231C8.78504 6.41906 8.05275 6.8841 7.44993 7.49286C6.84711 8.10161 6.38927 8.83841 6.11043 9.64849Z" fill="white"/>
</g>
</svg>
