<svg width="42" height="43" viewBox="0 0 42 43" fill="none" xmlns="http://www.w3.org/2000/svg">
<g opacity="0.05">
<path d="M12.424 42.5H4.69815C2.2223 42.5 0.223722 40.4996 0.223722 38.0216V30.2889C0.223722 29.0946 0.700994 27.9601 1.53622 27.1241L8.12855 20.5259C8.72514 19.9288 9.64986 19.9288 10.2464 20.5259C10.843 21.1231 10.843 22.0486 10.2464 22.6457L3.65412 29.2439C3.3731 29.5195 3.21228 29.8951 3.20668 30.2889V38.0216C3.20668 38.8576 3.86293 39.5144 4.69815 39.5144H12.424C12.8118 39.5144 13.1996 39.3651 13.468 39.0666L20.0604 32.4684C20.657 31.8712 21.5817 31.8712 22.1783 32.4684C22.7749 33.0655 22.7749 33.991 22.1783 34.5881L15.5859 41.1863C14.7507 42.0223 13.6172 42.5 12.424 42.5ZM33.3942 22.7353C33.1986 22.7377 33.0046 22.6991 32.8248 22.6219C32.645 22.5448 32.4833 22.4309 32.3501 22.2875C31.7535 21.6903 31.7535 20.7648 32.3501 20.1677L38.6143 13.8979C39.1811 13.3306 39.1811 12.3752 38.6143 11.7781L30.8885 4.04541C30.6036 3.77206 30.2242 3.61945 29.8295 3.61945C29.4349 3.61945 29.0555 3.77206 28.7706 4.04541L22.3274 10.4943C21.7308 11.0914 20.8061 11.0914 20.2095 10.4943C19.6129 9.89719 19.6129 8.97165 20.2095 8.37453L26.6527 1.92563C28.353 0.223832 31.2763 0.223832 32.9766 1.92563L40.7024 9.65834C42.4325 11.39 42.4325 14.2562 40.7024 15.9878L34.4382 22.2576C34.1399 22.5562 33.7521 22.7054 33.3942 22.7054V22.7353Z" fill="black"/>
<path d="M29.755 42.4701C28.5618 42.4701 27.4283 41.9924 26.593 41.1565L20.0604 34.618C19.4638 34.0209 19.4638 33.0953 20.0604 32.4982C20.657 31.9011 21.5817 31.9011 22.1783 32.4982L28.7109 39.0367C29.2777 39.604 30.2621 39.604 30.8288 39.0367L38.5547 31.304C39.1214 30.7367 39.1214 29.7813 38.5547 29.1842L32.022 22.6457C31.4254 22.0486 31.4254 21.1231 32.022 20.5259C32.6186 19.9288 33.5433 19.9288 34.1399 20.5259L40.6726 27.0644C42.4027 28.7961 42.4027 31.6623 40.6726 33.3939L32.9467 41.1266C32.1115 41.9626 30.978 42.4403 29.7848 42.4403L29.755 42.4701Z" fill="black"/>
<path d="M21.8501 35.7824C21.6545 35.7848 21.4606 35.7462 21.2808 35.669C21.101 35.5919 20.9393 35.478 20.8061 35.3345L1.29759 15.8385C-0.432528 14.1069 -0.432528 11.2407 1.29759 9.50906L9.02344 1.77635C10.7237 0.0745513 13.647 0.0745513 15.3473 1.77635L34.8558 21.3022C35.4524 21.8993 35.4524 22.8249 34.8558 23.422C34.2592 24.0191 33.3345 24.0191 32.7379 23.422L13.2294 3.89613C12.9445 3.62278 12.5651 3.47017 12.1705 3.47017C11.7758 3.47017 11.3964 3.62278 11.1115 3.89613L3.38565 11.6288C2.81889 12.1961 2.81889 13.1515 3.38565 13.7486L22.8942 33.2745C23.4908 33.8716 23.4908 34.7971 22.8942 35.3943C22.5959 35.6928 22.2081 35.8421 21.8501 35.8421V35.7824Z" fill="black"/>
<path d="M13.826 15.4504C13.6304 15.4528 13.4364 15.4142 13.2566 15.3371C13.0768 15.2599 12.9151 15.146 12.782 15.0026C12.1854 14.4055 12.1854 13.4799 12.782 12.8828L18.5689 7.09072C19.1655 6.4936 20.0902 6.4936 20.6868 7.09072C21.2834 7.68784 21.2834 8.61338 20.6868 9.2105L14.8999 15.0026C14.6016 15.3011 14.2138 15.4504 13.8558 15.4504H13.826ZM19.8814 21.5112C19.6858 21.5136 19.4918 21.475 19.312 21.3978C19.1322 21.3207 18.9705 21.2068 18.8374 21.0634C18.2408 20.4662 18.2408 19.5407 18.8374 18.9436L24.6243 13.1515C25.2209 12.5544 26.1456 12.5544 26.7422 13.1515C27.3388 13.7486 27.3388 14.6742 26.7422 15.2713L20.9553 21.0634C20.657 21.3619 20.2692 21.5112 19.9112 21.5112H19.8814ZM25.9368 27.572C25.7412 27.5744 25.5472 27.5357 25.3674 27.4586C25.1876 27.3815 25.0259 27.2676 24.8928 27.1241C24.2962 26.527 24.2962 25.6015 24.8928 25.0044L30.6797 19.2123C31.2763 18.6152 32.201 18.6152 32.7976 19.2123C33.3942 19.8094 33.3942 20.7349 32.7976 21.3321L27.0106 27.1241C26.7124 27.4227 26.3246 27.572 25.9666 27.572H25.9368Z" fill="black"/>
</g>
</svg>
