<svg width="27" height="27" viewBox="0 0 27 27" fill="none" xmlns="http://www.w3.org/2000/svg">
<path d="M23.625 22.1063V20.25H7.7625L8.775 18.3937L24.3 16.875L27 6.75H6.24375L5.0625 1.6875H0V3.375H3.7125L7.25625 17.55L5.0625 21.9375V24.4688C5.0625 25.8188 6.24375 27 7.59375 27C8.94375 27 10.125 25.8188 10.125 24.4688C10.125 23.1187 8.94375 21.9375 7.59375 21.9375H20.25V24.4688C20.25 25.8188 21.4312 27 22.7812 27C24.1313 27 25.3125 25.8188 25.3125 24.4688C25.3125 23.2875 24.6375 22.4438 23.625 22.1063Z" fill="#757575"/>
</svg>
